<?xml version="1.0" encoding="UTF-8"?>
<svg version="1.1" xmlns="http://www.w3.org/2000/svg" width="808" height="875">
<path d="M0 0 C1.69426863 0.38004771 3.38316334 0.78470313 5.06640625 1.2109375 C5.91267578 1.40300781 6.75894531 1.59507813 7.63085938 1.79296875 C11.77812984 2.76077345 15.72857442 3.83999841 19.62890625 5.5859375 C18.32291885 9.09706577 16.7818667 12.14003247 14.7578125 15.2890625 C14.18933594 16.17787109 13.62085938 17.06667969 13.03515625 17.98242188 C12.42671875 18.92408203 11.81828125 19.86574219 11.19140625 20.8359375 C10.56105469 21.81884766 9.93070313 22.80175781 9.28125 23.81445312 C7.40213372 26.74153809 5.51693062 29.66459213 3.62890625 32.5859375 C2.88229736 33.74125977 2.88229736 33.74125977 2.12060547 34.91992188 C0.36202966 37.63891688 -1.39787632 40.35703578 -3.16113281 43.07299805 C-9.29757064 52.53466058 -15.32778784 62.06464195 -21.37109375 71.5859375 C-17.26542358 72.97944687 -13.15770896 74.36671057 -9.0480957 75.74853516 C-7.65398087 76.21823 -6.2604115 76.68954742 -4.86743164 77.16259766 C-1.55132775 78.28819302 1.76826595 79.39657053 5.10473633 80.46044922 C7.19101201 81.12672777 9.2702985 81.81694767 11.33081055 82.55908203 C14.56275546 83.574073 16.52955974 84.11907473 19.6496582 82.60595703 C21.75338559 81.08607223 23.65356973 79.46453086 25.56640625 77.7109375 C29.93190585 73.73749589 32.84430724 71.20141555 38.9453125 71.265625 C39.76588135 71.33249512 40.5864502 71.39936523 41.43188477 71.46826172 C43.80732062 71.73008566 43.80732062 71.73008566 46.62890625 70.5859375 C49.00366211 71.0480957 49.00366211 71.0480957 51.84375 71.88671875 C52.90795166 72.19907471 53.97215332 72.51143066 55.06860352 72.83325195 C56.22287842 73.18476318 57.37715332 73.53627441 58.56640625 73.8984375 C60.36839478 74.44213989 60.36839478 74.44213989 62.20678711 74.99682617 C84.54776109 81.84294936 106.27622875 90.10345004 127.62890625 99.5859375 C128.48774414 99.96572754 129.34658203 100.34551758 130.23144531 100.73681641 C155.05614405 111.81589538 179.05356177 125.71968005 199.62890625 143.5859375 C200.40234375 144.22660156 201.17578125 144.86726562 201.97265625 145.52734375 C218.51851842 159.55166186 230.77246737 179.4191408 237.63598633 199.9074707 C238.58811705 202.47590594 239.71060156 204.78924618 240.9921875 207.20703125 C256.22485056 237.27742617 260.84171941 273.79975554 257.75390625 307.0234375 C257.67269531 307.92368652 257.59148438 308.82393555 257.5078125 309.75146484 C257.1094526 313.85174765 256.63156738 317.83617147 255.69921875 321.8515625 C253.36616505 332.46382522 256.33838111 338.07661423 261.8203125 346.87890625 C284.52146726 383.59388083 283.84142818 428.9106361 274.38818359 469.45654297 C265.21055283 507.28254656 251.56658519 547.41826807 227.62890625 578.5859375 C226.87722168 579.56651123 226.87722168 579.56651123 226.11035156 580.56689453 C211.27771964 599.7106933 193.80142138 619.73293022 173.37109375 633.05859375 C165.94241084 638.11889866 162.20809338 645.1924007 157.72753906 652.77148438 C155.00424096 657.26916249 151.93901267 661.28641352 148.2109375 664.984375 C145.81810678 667.3953058 143.73068194 669.85927261 141.62890625 672.5234375 C133.76985188 682.21933262 125.38947411 691.76363844 115.62890625 699.5859375 C114.89317383 700.19018555 114.89317383 700.19018555 114.14257812 700.80664062 C106.58643782 707.00677937 98.90867905 712.53206854 90.46582031 717.4921875 C88.40792631 718.71751514 86.37342375 719.97692871 84.33984375 721.2421875 C51.90334589 741.40032506 17.18327981 754.47017641 -20.37109375 761.5859375 C-21.23734375 761.75174316 -22.10359375 761.91754883 -22.99609375 762.08837891 C-117.49740551 779.7127221 -215.04444808 749.77202597 -293.2734375 696.72265625 C-294.29566406 696.01753906 -295.31789063 695.31242188 -296.37109375 694.5859375 C-296.98742676 694.1626416 -297.60375977 693.7393457 -298.23876953 693.30322266 C-341.20850092 663.70741592 -378.01369065 629.04261546 -404.37109375 583.5859375 C-404.78278809 582.88742676 -405.19448242 582.18891602 -405.61865234 581.46923828 C-438.81525316 524.97585464 -453.79707867 459.43226032 -458.37109375 394.5859375 C-458.42894043 393.83393066 -458.48678711 393.08192383 -458.54638672 392.30712891 C-461.22246498 357.00989485 -461.2232875 319.69922294 -451.37109375 285.5859375 C-451.02643066 284.37631348 -450.68176758 283.16668945 -450.32666016 281.92041016 C-444.01338935 259.87052869 -444.01338935 259.87052869 -442.37109375 256.5859375 C-441.71109375 256.5859375 -441.05109375 256.5859375 -440.37109375 256.5859375 C-440.18776489 255.07592163 -440.18776489 255.07592163 -440.00073242 253.53540039 C-439.04916443 247.56660804 -437.16333572 241.90662384 -435.3527832 236.1550293 C-434.69382487 234.05602704 -434.04852669 231.95317157 -433.40429688 229.84960938 C-430.60167594 220.82097578 -427.27381978 212.19969651 -423.37109375 203.5859375 C-423.04109375 203.5859375 -422.71109375 203.5859375 -422.37109375 203.5859375 C-422.22414063 204.82085937 -422.0771875 206.05578125 -421.92578125 207.328125 C-417.93907755 238.3725342 -404.80086032 261.71691509 -382.37109375 283.5859375 C-381.77425781 284.21628906 -381.17742187 284.84664063 -380.5625 285.49609375 C-365.67069995 300.98903068 -346.95869539 312.99878504 -328.37109375 323.5859375 C-327.11159912 324.30885986 -327.11159912 324.30885986 -325.82666016 325.04638672 C-309.81703537 334.17320959 -293.39209163 341.5839541 -276.37109375 348.5859375 C-274.09456664 349.53268773 -271.81850124 350.48054917 -269.54296875 351.4296875 C-268.5487793 351.84412109 -267.55458984 352.25855469 -266.53027344 352.68554688 C-265.46147949 353.13124023 -265.46147949 353.13124023 -264.37109375 353.5859375 C-264.74186035 352.33248535 -265.11262695 351.0790332 -265.49462891 349.78759766 C-268.26406177 340.31923826 -270.85121288 330.8448081 -273.08203125 321.234375 C-273.52681147 319.35664467 -273.9721242 317.4790404 -274.41796875 315.6015625 C-275.09515816 312.74783468 -275.7611026 309.89340891 -276.39746094 307.03027344 C-277.03183558 304.19407829 -277.70884136 301.37103793 -278.39453125 298.546875 C-278.66527969 297.25805923 -278.66527969 297.25805923 -278.9414978 295.94320679 C-279.99592415 291.56533638 -279.99592415 291.56533638 -283.02737427 288.45098877 C-285.12718085 287.62505987 -287.17030038 287.08056322 -289.37109375 286.5859375 C-290.80502388 286.18290889 -292.23877848 285.77925526 -293.67236328 285.375 C-295.19851957 284.98296823 -296.72574945 284.59509728 -298.25390625 284.2109375 C-299.93232192 283.77876329 -301.61070641 283.34646803 -303.2890625 282.9140625 C-305.89964567 282.24702825 -308.51076884 281.58221621 -311.12255859 280.91992188 C-313.66786935 280.27273617 -316.21093868 279.61726009 -318.75390625 278.9609375 C-319.91661545 278.67017334 -319.91661545 278.67017334 -321.10281372 278.37353516 C-329.02792827 276.32029646 -335.3560603 273.2407639 -340.37109375 266.5859375 C-341.62109375 262.8984375 -341.62109375 262.8984375 -341.37109375 259.5859375 C-337.99316999 255.55422204 -333.48700629 254.16142147 -328.37109375 253.5859375 C-322.17214491 253.79599845 -316.29662051 255.23210647 -310.35546875 256.90625 C-308.67583944 257.36349505 -306.99615018 257.82051994 -305.31640625 258.27734375 C-302.70627641 258.99569645 -300.09719986 259.71759144 -297.48925781 260.44384766 C-294.94713187 261.14904271 -292.40164031 261.84082945 -289.85546875 262.53125 C-288.68972321 262.86239304 -288.68972321 262.86239304 -287.50042725 263.20022583 C-283.48304506 264.28265426 -280.33119398 265.09320865 -276.37109375 263.5859375 C-274.39583845 262.14052009 -274.39583845 262.14052009 -272.6640625 260.234375 C-271.99439453 259.54730469 -271.32472656 258.86023438 -270.63476562 258.15234375 C-269.94962891 257.42917969 -269.26449219 256.70601563 -268.55859375 255.9609375 C-267.2005166 254.54957694 -265.83984483 253.14070835 -264.4765625 251.734375 C-263.58167114 250.79343994 -263.58167114 250.79343994 -262.66870117 249.83349609 C-260.70233339 247.90996174 -258.69416367 246.12650855 -256.60839844 244.33642578 C-252.30272746 240.59841828 -248.39011675 236.56354008 -244.46875 232.4296875 C-242.987713 230.897098 -241.50524861 229.3658868 -240.02148438 227.8359375 C-237.71322021 225.45346768 -235.41376608 223.06492738 -233.13696289 220.65234375 C-230.91644737 218.3045951 -228.66527019 215.9903312 -226.40625 213.6796875 C-225.73408951 212.9527771 -225.06192902 212.2258667 -224.36940002 211.47692871 C-219.63958256 206.71831462 -219.63958256 206.71831462 -216.01512146 206.34007263 C-213.7070618 206.57387025 -211.60918107 206.98364042 -209.37109375 207.5859375 C-208.63733521 207.7560585 -207.90357666 207.9261795 -207.14758301 208.10145569 C-205.18348332 208.56507421 -203.24925651 209.09535838 -201.30859375 209.6484375 C-200.63376953 209.83470703 -199.95894531 210.02097656 -199.26367188 210.21289062 C-197.63110688 210.66445116 -196.00083377 211.12428519 -194.37109375 211.5859375 C-194.37109375 215.8840964 -194.74548085 216.62210433 -197.08984375 219.98046875 C-197.68442383 220.8420459 -198.27900391 221.70362305 -198.89160156 222.59130859 C-199.54483398 223.51766113 -200.19806641 224.44401367 -200.87109375 225.3984375 C-201.8780127 226.84984131 -201.8780127 226.84984131 -202.90527344 228.33056641 C-205.052215 231.42158496 -207.21155396 234.50371163 -209.37109375 237.5859375 C-210.76274929 239.58652311 -212.15339062 241.58781464 -213.54296875 243.58984375 C-216.22642418 247.45465849 -218.91404139 251.31651425 -221.60546875 255.17578125 C-226.56210685 262.28863272 -231.4714734 269.43373745 -236.37109375 276.5859375 C-232.62253085 278.0064264 -228.87198003 279.42159622 -225.12109375 280.8359375 C-224.07695312 281.23167969 -223.0328125 281.62742187 -221.95703125 282.03515625 C-218.76779147 283.23604283 -215.57211146 284.41681958 -212.37109375 285.5859375 C-210.72077148 286.19211914 -210.72077148 286.19211914 -209.03710938 286.81054688 C-207.97685547 287.18501953 -206.91660156 287.55949219 -205.82421875 287.9453125 C-204.87192383 288.28530273 -203.91962891 288.62529297 -202.93847656 288.97558594 C-200.18869108 289.62930063 -198.96279635 289.63816472 -196.37109375 288.5859375 C-194.5645379 287.44291489 -194.5645379 287.44291489 -192.83203125 286.01171875 C-182.10059888 277.78678326 -182.10059888 277.78678326 -177.34375 277.234375 C-174.82700979 277.76952161 -172.71059085 278.52565166 -170.37109375 279.5859375 C-169.00136747 279.97976477 -167.62663524 280.35688213 -166.24609375 280.7109375 C-165.29734375 280.9996875 -164.34859375 281.2884375 -163.37109375 281.5859375 C-163.37109375 282.2459375 -163.37109375 282.9059375 -163.37109375 283.5859375 C-162.76773193 283.73724121 -162.16437012 283.88854492 -161.54272461 284.04443359 C-152.84639686 286.31345974 -144.40145559 289.22258292 -135.93359375 292.2109375 C-135.14596649 292.4881665 -134.35833923 292.76539551 -133.54684448 293.05102539 C-103.42249011 303.68063561 -73.59304298 315.16926836 -44.43066406 328.21923828 C-41.65411139 329.45951452 -38.87029397 330.68087342 -36.08203125 331.89453125 C-13.96226457 341.5819721 7.27780951 352.60269926 27.92578125 365.08984375 C29.41368164 365.98147217 29.41368164 365.98147217 30.93164062 366.89111328 C33.62890625 368.5859375 33.62890625 368.5859375 35.77929688 370.22998047 C38.59504374 372.34179061 40.48797213 373.58776208 44.0715332 373.58203125 C47.00166632 373.10481608 49.77352244 372.39880413 52.62890625 371.5859375 C53.69737793 371.30508301 54.76584961 371.02422852 55.86669922 370.73486328 C59.45204229 369.76226271 63.00903313 368.7187501 66.56640625 367.6484375 C67.20975922 367.45541046 67.85311218 367.26238342 68.51596069 367.06350708 C87.82596651 361.23390922 106.61301685 353.89164339 124.69921875 344.94921875 C127.62890625 343.5859375 127.62890625 343.5859375 129.62890625 343.5859375 C127.06629398 338.613136 123.38810701 335.08375913 119.44140625 331.2109375 C118.48911133 330.25960937 118.48911133 330.25960937 117.51757812 329.2890625 C113.0482708 324.86042632 108.41404965 320.66974423 103.62890625 316.5859375 C102.99090088 316.04114746 102.35289551 315.49635742 101.69555664 314.93505859 C31.58845025 255.54625871 -53.03779113 216.88314971 -208.00279236 176.9732666 C-214.16270379 175.65477647 -220.27658237 174.1809323 -226.37109375 172.5859375 C-226.37109375 174.2359375 -226.37109375 175.8859375 -226.37109375 177.5859375 C-233.20816461 177.72781348 -240.16209398 177.75918505 -246.37109375 174.5859375 C-251.41626243 169.23112459 -254.34356633 162.31054799 -257.1328125 155.57958984 C-258.16683595 153.44365115 -258.16683595 153.44365115 -260.16192627 152.97990417 C-262.44880063 152.57207983 -264.63526375 152.38660449 -266.95605469 152.28881836 C-267.8566864 152.24885239 -268.75731812 152.20888641 -269.6852417 152.16770935 C-270.64891663 152.12912308 -271.61259155 152.0905368 -272.60546875 152.05078125 C-273.59863098 152.00780411 -274.59179321 151.96482697 -275.61505127 151.92054749 C-278.78358152 151.78432206 -281.95231777 151.65380917 -285.12109375 151.5234375 C-287.27084937 151.43201706 -289.42058922 151.34022465 -291.5703125 151.24804688 C-296.83706412 151.02302897 -302.10399623 150.80269934 -307.37109375 150.5859375 C-307.05253418 151.68131836 -306.73397461 152.77669922 -306.40576172 153.90527344 C-301.68788662 170.22770586 -297.24412961 186.623737 -292.80078125 203.02246094 C-291.69974865 207.0859015 -290.59625874 211.14867027 -289.49209785 215.21126175 C-288.63677421 218.35926503 -287.78265636 221.50759445 -286.92892075 224.65602875 C-286.52179223 226.1569074 -286.11429574 227.6576863 -285.70642471 229.15836334 C-285.14306406 231.23187331 -284.58131507 233.30581302 -284.02001953 235.37988281 C-283.7005838 236.55786438 -283.38114807 237.73584595 -283.05203247 238.94952393 C-282.37109375 241.5859375 -282.37109375 241.5859375 -282.37109375 242.5859375 C-284.55898635 242.46800854 -286.74639177 242.34104798 -288.93359375 242.2109375 C-290.15175781 242.14132812 -291.36992187 242.07171875 -292.625 242 C-293.32890869 241.92942383 -294.03281738 241.85884766 -294.75805664 241.78613281 C-297.531874 241.53505716 -297.531874 241.53505716 -300.96655273 241.62792969 C-305.17665664 241.47436967 -308.42516916 241.08590607 -312.37109375 239.5859375 C-316.27434208 235.11606977 -318.17096305 230.06463207 -320.30859375 224.5859375 C-320.96021266 223.04876413 -321.61821576 221.51428311 -322.28222656 219.98242188 C-323.65874585 216.79364879 -325.00703302 213.59500309 -326.33740234 210.38671875 C-329.20420041 203.53830465 -332.42015979 196.85851093 -335.62698364 190.16455078 C-337.18575544 186.90527021 -338.72527953 183.63704336 -340.26171875 180.3671875 C-340.5629213 179.72668457 -340.86412384 179.08618164 -341.17445374 178.42626953 C-346.29767726 167.50641179 -351.32554312 156.54182845 -356.37109375 145.5859375 C-357.46198051 145.53075455 -357.46198051 145.53075455 -358.5749054 145.47445679 C-365.47498297 145.1205894 -372.37319474 144.74059126 -379.27024555 144.33220482 C-382.81507775 144.12320729 -386.35987379 143.92386612 -389.90649414 143.74755859 C-393.99700027 143.54376918 -398.0838934 143.29626176 -402.171875 143.046875 C-403.42752762 142.9903476 -404.68318024 142.93382019 -405.97688293 142.87557983 C-415.56762308 142.23937536 -423.16302705 139.3938609 -430.55859375 133.1484375 C-432.37109375 130.5859375 -432.37109375 130.5859375 -432.99609375 127.0859375 C-432.18150197 122.52422353 -431.09205618 121.3394497 -427.37109375 118.5859375 C-420.24473626 114.84986103 -414.36086931 114.12706443 -406.43359375 114.7109375 C-405.38381348 114.75484619 -404.3340332 114.79875488 -403.25244141 114.84399414 C-397.36933789 115.12062248 -391.59706828 115.66194939 -385.77836609 116.54421997 C-369.68168198 119.61713895 -369.68168198 119.61713895 -354.52832031 115.77490234 C-349.63375561 110.7565929 -346.6499254 104.78841912 -343.75195312 98.46484375 C-341.79523283 94.38534486 -339.28015922 90.85460099 -336.62109375 87.2109375 C-335.73700896 85.93496886 -334.8567462 84.65634293 -333.98046875 83.375 C-333.55185547 82.75270508 -333.12324219 82.13041016 -332.68164062 81.48925781 C-330.40954312 78.18946792 -328.14053152 74.8875569 -325.87109375 71.5859375 C-324.95703817 70.25650566 -324.04297568 68.92707857 -323.12890625 67.59765625 C-319.63461396 62.51528469 -319.63461396 62.51528469 -316.14501953 57.4296875 C-315.21950334 56.08583153 -314.28826 54.74590021 -313.35107422 53.41015625 C-311.13287913 50.23656471 -309.03779683 47.06607582 -307.13671875 43.69140625 C-302.17761015 35.13779114 -302.17761015 35.13779114 -297.51953125 33.71484375 C-294.01345657 33.64089428 -290.83550524 34.03469816 -287.37109375 34.5859375 C-285.83423125 34.75944884 -284.29638484 34.92439974 -282.7578125 35.08203125 C-278.61848883 35.51642057 -274.4961366 36.03263834 -270.37109375 36.5859375 C-271.06487426 41.2219104 -272.78601656 45.34503131 -274.58984375 49.63671875 C-274.9200502 50.43217102 -275.25025665 51.22762329 -275.59046936 52.04718018 C-276.67935235 54.66623372 -277.77505375 57.28237189 -278.87109375 59.8984375 C-279.62906556 61.71661517 -280.38679339 63.53489457 -281.14428711 65.35327148 C-289.12044098 84.47277974 -297.23204971 103.53530954 -305.37109375 122.5859375 C-304.7790918 122.66110596 -304.18708984 122.73627441 -303.57714844 122.8137207 C-291.97670809 124.29227394 -280.390644 125.80745852 -268.84472656 127.67114258 C-267.34535908 127.90626636 -265.84308905 128.1238577 -264.33813477 128.32006836 C-262.65938654 128.54697128 -260.99298337 128.86226812 -259.33203125 129.1953125 C-254.19736124 128.13857302 -251.415248 123.96934238 -248.05859375 120.1484375 C-247.33091797 119.34599609 -246.60324219 118.54355469 -245.85351562 117.71679688 C-244.51435007 116.2378489 -243.18185788 114.75281261 -241.8581543 113.26000977 C-241.04973635 112.34992573 -240.23184706 111.44669081 -239.37109375 110.5859375 C-232.31215427 110.2335088 -225.34920772 110.49133139 -218.37109375 111.5859375 C-219.03109375 113.2359375 -219.69109375 114.8859375 -220.37109375 116.5859375 C-217.54426224 117.36481077 -214.87239499 117.78093322 -211.94946289 117.98730469 C-210.63352394 118.083433 -210.63352394 118.083433 -209.29100037 118.1815033 C-208.33903275 118.24793533 -207.38706512 118.31436737 -206.40625 118.3828125 C-204.32890355 118.53508293 -202.2515939 118.68785614 -200.17431641 118.84106445 C-198.52825409 118.9612645 -198.52825409 118.9612645 -196.84893799 119.08389282 C-163.16474697 121.56970991 -129.69005202 124.96635816 -96.30859375 130.1484375 C-95.39281555 130.29028473 -94.47703735 130.43213196 -93.5335083 130.57827759 C-82.88851286 132.24106845 -72.31030331 134.11071543 -61.76780701 136.33851624 C-60.98664017 136.50129562 -60.20547333 136.66407501 -59.40063477 136.83178711 C-58.71695328 136.97748642 -58.03327179 137.12318573 -57.32887268 137.27330017 C-55.04319888 137.69106538 -55.04319888 137.69106538 -51.37109375 137.5859375 C-51.54648682 136.96619553 -51.72187988 136.34645355 -51.90258789 135.70793152 C-53.72392703 129.2694136 -55.53982418 122.82937894 -57.35253906 116.38842773 C-58.03017359 113.98340989 -58.70920447 111.57878503 -59.38964844 109.17456055 C-60.36628909 105.7228619 -61.33793346 102.26979071 -62.30859375 98.81640625 C-62.61482666 97.73820114 -62.92105957 96.65999603 -63.23657227 95.54911804 C-63.51686279 94.54830704 -63.79715332 93.54749603 -64.0859375 92.51635742 C-64.45900024 91.19398323 -64.45900024 91.19398323 -64.83959961 89.84489441 C-65.37109375 87.5859375 -65.37109375 87.5859375 -65.37109375 84.5859375 C-66.92376953 84.27462891 -66.92376953 84.27462891 -68.5078125 83.95703125 C-78.28441624 81.96548028 -88.02687047 79.81431541 -97.74111938 77.5383606 C-99.65651371 77.09224473 -101.5747101 76.65821529 -103.49291992 76.22436523 C-113.67189541 73.81172884 -120.37120059 70.58577724 -126.37109375 61.5859375 C-126.80859375 59.1484375 -126.80859375 59.1484375 -126.37109375 56.5859375 C-122.14922531 52.10819824 -117.2544806 50.80142752 -111.23828125 50.35180664 C-106.41064127 50.64408611 -102.41998687 52.02611844 -97.87109375 53.58203125 C-78.60832184 60.73225262 -78.60832184 60.73225262 -59.17333984 58.93115234 C-52.05465329 54.39067903 -47.02582814 47.42802727 -42.36083984 40.52832031 C-36.71188326 32.17479581 -29.20088336 25.33469037 -22.04296875 18.296875 C-18.4259655 14.71677994 -14.89665238 11.11683123 -11.55859375 7.2734375 C-10.99213135 6.62971191 -10.42566895 5.98598633 -9.84204102 5.32275391 C-8.24703585 3.48937975 -8.24703585 3.48937975 -6.5234375 0.984375 C-3.87638192 -0.73549052 -3.05720491 -0.47790499 0 0 Z M-26.37109375 95.5859375 C-25.13873414 112.64427256 -23.44959073 129.61015708 -21.37109375 146.5859375 C-20.3641748 146.86304565 -20.3641748 146.86304565 -19.33691406 147.14575195 C26.74677164 159.96798814 71.44775205 180.2781974 112.62890625 204.5859375 C113.52206543 205.10816895 114.41522461 205.63040039 115.33544922 206.16845703 C125.72650108 212.24950911 135.86689456 218.53163709 145.62890625 225.5859375 C146.28890625 225.2559375 146.94890625 224.9259375 147.62890625 224.5859375 C142.63647189 215.27134932 137.6616094 206.54723058 130.62890625 198.5859375 C129.95472656 197.80347656 129.28054688 197.02101563 128.5859375 196.21484375 C126.31209893 193.62622972 123.98541705 191.09954902 121.62890625 188.5859375 C120.93933838 187.84537109 120.93933838 187.84537109 120.23583984 187.08984375 C96.33213267 161.62219426 64.87029537 144.39021666 33.82421875 129.1796875 C32.92928711 128.72819336 32.03435547 128.27669922 31.11230469 127.81152344 C29.57582314 127.05325197 28.01847859 126.33410553 26.43457031 125.68066406 C24.52734375 124.8203125 24.52734375 124.8203125 21.62890625 122.5859375 C20.98882398 120.35260092 20.77001434 118.18870043 20.50463867 115.88208008 C19.74776458 110.75313928 18.5481116 107.12599285 14.62890625 103.5859375 C3.07349083 98.1731514 -13.64969977 95.5859375 -26.37109375 95.5859375 Z M-440.37109375 260.5859375 C-434.4443303 294.62982678 -416.46790863 322.56338077 -397.37109375 350.5859375 C-396.79987793 351.42415039 -396.22866211 352.26236328 -395.64013672 353.12597656 C-382.66426104 372.08416432 -368.86124136 390.55104631 -353.93359375 408.0234375 C-350.47297623 412.07905526 -347.08058117 416.17510241 -343.74609375 420.3359375 C-340.30167497 424.57380275 -336.65341753 428.45015289 -332.70703125 432.22265625 C-330.78989596 434.16223292 -329.02340578 436.1282117 -327.25 438.1953125 C-322.71829453 443.41855234 -317.83168681 448.27123183 -312.93359375 453.1484375 C-312.03060547 454.05529297 -311.12761719 454.96214844 -310.19726562 455.89648438 C-305.62581504 460.46131447 -301.00219002 464.89300993 -296.09838867 469.09936523 C-293.7555352 471.11570937 -291.50658147 473.22808722 -289.24609375 475.3359375 C-283.51455145 480.55643693 -277.49427885 485.32016303 -271.35449219 490.04833984 C-269.22577625 491.69859255 -267.1140329 493.36902128 -265.00390625 495.04296875 C-255.73661377 502.37242769 -246.34632674 509.25559162 -236.37109375 515.5859375 C-235.61022461 516.07384766 -234.84935547 516.56175781 -234.06542969 517.06445312 C-174.43781472 555.20143028 -105.67255765 580.13962662 -34.37109375 581.5859375 C-33.56784668 581.60640137 -32.76459961 581.62686523 -31.93701172 581.64794922 C4.94477484 583.57115751 4.94477484 583.57115751 39.62890625 574.5859375 C40.34129176 555.83923887 38.30620042 538.49106585 32.62890625 520.5859375 C25.55938464 521.12132838 18.53130082 521.81014903 11.49658203 522.69018555 C-45.9070701 529.83369239 -103.63742146 522.95324302 -158.37109375 504.5859375 C-159.30147461 504.27575684 -160.23185547 503.96557617 -161.19042969 503.64599609 C-193.09505104 492.87633544 -224.12895432 477.92676097 -252.37109375 459.5859375 C-253.12181152 459.09883301 -253.8725293 458.61172852 -254.64599609 458.10986328 C-269.18434828 448.62779951 -283.25516366 438.66133986 -296.81494141 427.82617188 C-298.18590331 426.73353201 -299.56499401 425.65110816 -300.9453125 424.5703125 C-319.03106588 410.34086025 -335.5960497 394.44238136 -351.87109375 378.2109375 C-352.43784821 377.64686188 -353.00460266 377.08278625 -353.58853149 376.50161743 C-359.73584789 370.37635639 -365.74644268 364.20131658 -371.37109375 357.5859375 C-372.82554892 355.97825377 -374.2833027 354.37354035 -375.74609375 352.7734375 C-379.58915673 348.50983733 -383.26432109 344.14041477 -386.87109375 339.67578125 C-388.69112947 337.42633085 -390.52328257 335.19119958 -392.37109375 332.96484375 C-407.45121987 314.72857242 -420.76306168 295.42671415 -432.43359375 274.8359375 C-432.79163086 274.20478027 -433.14966797 273.57362305 -433.51855469 272.92333984 C-435.7547053 268.90064075 -437.62252067 264.83480668 -439.37109375 260.5859375 C-439.70109375 260.5859375 -440.03109375 260.5859375 -440.37109375 260.5859375 Z M-241.37109375 300.5859375 C-241.48705649 308.81860186 -241.16352859 316.92861857 -240.49609375 325.1328125 C-240.40730957 326.27002747 -240.31852539 327.40724243 -240.22705078 328.57891846 C-239.94608866 332.16495054 -239.6587062 335.75043331 -239.37109375 339.3359375 C-239.17795829 341.78642471 -238.98524606 344.23694531 -238.79296875 346.6875 C-238.32389755 352.65404027 -237.8495726 358.62014469 -237.37109375 364.5859375 C-186.26175831 376.82302221 -134.27182828 388.5362501 -81.37109375 387.5859375 C-109.17431251 364.51405042 -145.55521072 347.42920418 -178.37109375 332.5859375 C-179.03109375 333.2459375 -179.69109375 333.9059375 -180.37109375 334.5859375 C-185.36697797 333.89302707 -190.53131931 333.05615334 -194.37109375 329.5859375 C-195.24751899 327.24732151 -195.61465877 324.99383276 -196.03173828 322.53320312 C-196.90724186 317.44773336 -197.77637865 313.44774459 -201.37109375 309.5859375 C-212.29267459 303.5229153 -228.99151668 300.5859375 -241.37109375 300.5859375 Z M-453.37109375 321.5859375 C-452.37109375 324.5859375 -452.37109375 324.5859375 -452.37109375 324.5859375 Z M-452.37109375 324.5859375 C-448.51749174 376.67903187 -426.54314702 432.2972665 -403.37109375 478.5859375 C-402.94860352 479.43881348 -402.52611328 480.29168945 -402.09082031 481.17041016 C-386.85091909 511.79143651 -366.33637462 539.85434634 -342.96875 564.77734375 C-340.98749125 566.91948667 -339.07574076 569.08473769 -337.17578125 571.296875 C-332.81549235 576.30055295 -328.13538742 580.96780719 -323.43359375 585.6484375 C-322.57830078 586.50759766 -321.72300781 587.36675781 -320.84179688 588.25195312 C-315.84673924 593.23939054 -310.73927256 598.00464166 -305.37109375 602.5859375 C-304.2879657 603.53520833 -303.20588499 604.4856759 -302.125 605.4375 C-293.18230522 613.23801176 -283.89496274 620.51004627 -274.37109375 627.5859375 C-273.63310547 628.13427246 -272.89511719 628.68260742 -272.13476562 629.24755859 C-205.48324282 678.5413108 -125.26700599 712.54453763 -42.37109375 720.5859375 C-41.38753906 720.76253906 -40.40398437 720.93914062 -39.390625 721.12109375 C-34.56163665 721.71364944 -32.28947286 721.28243432 -28.34765625 718.29296875 C-25.10696167 715.27263936 -22.2202973 711.97229416 -19.37109375 708.5859375 C-18.12779297 707.13574219 -18.12779297 707.13574219 -16.859375 705.65625 C-14.64556346 703.00268302 -12.49992899 700.3079215 -10.37109375 697.5859375 C-9.675 696.72226562 -8.97890625 695.85859375 -8.26171875 694.96875 C-4.76482922 691.19976415 -4.76482922 691.19976415 -3.37109375 686.5859375 C-4.23871338 686.49618652 -5.10633301 686.40643555 -6.00024414 686.31396484 C-57.367281 680.89767824 -105.38282156 668.71482824 -152.37353516 646.97167969 C-155.06789993 645.72610105 -157.77028919 644.50066049 -160.4765625 643.28125 C-173.20412315 637.47994829 -185.2962995 630.62974202 -197.37109375 623.5859375 C-198.24975098 623.07627441 -199.1284082 622.56661133 -200.03369141 622.04150391 C-212.53693758 614.76710343 -224.5612355 606.93611767 -236.37109375 598.5859375 C-237.14759277 598.03760254 -237.9240918 597.48926758 -238.72412109 596.92431641 C-248.83449823 589.75973073 -258.72221546 582.3605952 -268.37109375 574.5859375 C-269.30050781 573.83957031 -270.22992188 573.09320312 -271.1875 572.32421875 C-282.66967823 563.01479623 -293.80963063 553.34893295 -304.59814453 543.24560547 C-306.54911161 541.41929396 -308.50498214 539.59831128 -310.4609375 537.77734375 C-328.04755826 521.37996968 -328.04755826 521.37996968 -335.265625 512.97265625 C-337.4767197 510.46620196 -339.75015113 508.02909447 -342.03808594 505.59301758 C-347.20871338 500.08462902 -352.21115668 494.52023384 -356.93359375 488.6171875 C-358.82762437 486.26179044 -360.74334057 483.93410382 -362.68359375 481.6171875 C-369.55373378 473.39847482 -376.08834796 465.07796053 -382.18994141 456.27441406 C-383.38205826 454.57026356 -384.59665466 452.88474588 -385.8203125 451.203125 C-413.90300692 412.56663923 -436.22749885 369.88892815 -451.37109375 324.5859375 C-451.70109375 324.5859375 -452.03109375 324.5859375 -452.37109375 324.5859375 Z M157.00390625 467.5859375 C156.00101563 468.3284375 154.998125 469.0709375 153.96484375 469.8359375 C153.19398438 470.4134375 152.423125 470.9909375 151.62890625 471.5859375 C152.94115173 475.52267394 154.54800952 477.81313044 157.62890625 480.5859375 C158.80023683 478.12972899 159.96612347 475.67118833 161.12890625 473.2109375 C161.46277344 472.51226563 161.79664063 471.81359375 162.140625 471.09375 C163.98100023 467.49765751 163.98100023 467.49765751 164.62890625 463.5859375 C161.39711408 463.5859375 159.5453919 465.69459935 157.00390625 467.5859375 Z " fill="#196888" transform="translate(505.37109375,49.4140625)"/>
<path d="M0 0 C1.8804344 2.8206516 2.58218683 4.62936416 3.4453125 7.83984375 C3.71311523 8.81018555 3.98091797 9.78052734 4.25683594 10.78027344 C4.54333008 11.8221582 4.82982422 12.86404297 5.125 13.9375 C12.04167272 38.18577235 22.53004182 59.65331794 36.87841797 80.36962891 C38.53959518 82.78437453 40.14083845 85.23788464 41.75 87.6875 C56.49921733 109.75232912 72.18923584 131.24889248 89.4375 151.4375 C92.89811752 155.49311776 96.29051258 159.58916491 99.625 163.75 C103.06941878 167.98786525 106.71767622 171.86421539 110.6640625 175.63671875 C112.59089546 177.58610661 114.36862237 179.56391768 116.15234375 181.640625 C120.52055911 186.67542627 125.21544422 191.36169878 129.9375 196.0625 C130.79279297 196.92166016 131.64808594 197.78082031 132.52929688 198.66601562 C136.97652404 203.10645831 141.48725991 207.40133241 146.25512695 211.49584961 C148.60259058 213.51945719 150.85847868 215.63652353 153.125 217.75 C158.8565423 222.97049943 164.8768149 227.73422553 171.01660156 232.46240234 C173.1453175 234.11265505 175.25706085 235.78308378 177.3671875 237.45703125 C186.63447998 244.78649019 196.02476701 251.66965412 206 258 C206.76086914 258.48791016 207.52173828 258.97582031 208.30566406 259.47851562 C267.93327903 297.61549278 336.6985361 322.55368912 408 324 C408.80324707 324.02046387 409.60649414 324.04092773 410.43408203 324.06201172 C427.3488169 324.44165982 444.14777181 323.38771007 461 322 C461.8362793 321.93586914 462.67255859 321.87173828 463.53417969 321.80566406 C501.15395324 318.77484935 541.1635352 288.34850358 567.57421875 263.1171875 C570 261 570 261 573 260 C573.69222223 258.67975358 574.35587461 257.34436777 575 256 C576.12417634 254.81245097 577.29661738 253.66971065 578.5 252.5625 C588.31978438 242.99312907 596.21137433 231.63088678 601.43603516 218.98071289 C605.79237951 208.5174357 609.71869455 201.74115869 619 195 C620.40897553 193.80701715 621.80600034 192.5996954 623.1875 191.375 C623.8165625 190.8284375 624.445625 190.281875 625.09375 189.71875 C628.53308138 186.61771351 631.75823784 183.30491337 635 180 C640 175 640 175 641.47265625 173.6328125 C652.90153552 162.7713244 661.53858237 149.19249837 670 136 C670.64710938 135.00871094 671.29421875 134.01742187 671.9609375 132.99609375 C682.58778992 115.8584233 690.10480331 95.50119005 695 76 C698.72081704 79.29342589 700.97212976 83.08618377 703.25 87.4375 C703.83152832 88.54762451 703.83152832 88.54762451 704.42480469 89.68017578 C730.62371083 141.08673571 724.56275853 193.07951807 707.3125 246.28125 C698.47806519 272.7048723 687.04400965 299.80812167 670 322 C669.24831543 322.98057373 669.24831543 322.98057373 668.48144531 323.98095703 C653.64881339 343.1247558 636.17251513 363.14699272 615.7421875 376.47265625 C608.31350459 381.53296116 604.57918713 388.6064632 600.09863281 396.18554688 C597.37533471 400.68322499 594.31010642 404.70047602 590.58203125 408.3984375 C588.18920053 410.8093683 586.10177569 413.27333511 584 415.9375 C576.14094563 425.63339512 567.76056786 435.17770094 558 443 C557.26426758 443.60424805 557.26426758 443.60424805 556.51367188 444.22070312 C548.95753157 450.42084187 541.2797728 455.94613104 532.83691406 460.90625 C530.77902006 462.13157764 528.7445175 463.39099121 526.7109375 464.65625 C494.27443964 484.81438756 459.55437356 497.88423891 422 505 C421.13375 505.16580566 420.2675 505.33161133 419.375 505.50244141 C324.87368824 523.1267846 227.32664567 493.18608847 149.09765625 440.13671875 C148.07542969 439.43160156 147.05320313 438.72648437 146 438 C145.38366699 437.5767041 144.76733398 437.1534082 144.13232422 436.71728516 C101.16259283 407.12147842 64.3574031 372.45667796 38 327 C37.58830566 326.30148926 37.17661133 325.60297852 36.75244141 324.88330078 C3.55584059 268.38991714 -11.42598492 202.84632282 -16 138 C-16.05784668 137.24799316 -16.11569336 136.49598633 -16.17529297 135.72119141 C-18.85137123 100.42395735 -18.85219375 63.11328544 -9 29 C-8.65533691 27.79037598 -8.31067383 26.58075195 -7.95556641 25.33447266 C-1.6422956 3.28459119 -1.6422956 3.28459119 0 0 Z M-11 65 C-10 68 -10 68 -10 68 Z M-10 68 C-6.14639799 120.09309437 15.82794673 175.711329 39 222 C39.42249023 222.85287598 39.84498047 223.70575195 40.28027344 224.58447266 C55.52017466 255.20549901 76.03471913 283.26840884 99.40234375 308.19140625 C101.3836025 310.33354917 103.29535299 312.49880019 105.1953125 314.7109375 C109.5556014 319.71461545 114.23570633 324.38186969 118.9375 329.0625 C119.79279297 329.92166016 120.64808594 330.78082031 121.52929688 331.66601562 C126.52435451 336.65345304 131.63182119 341.41870416 137 346 C138.08312805 346.94927083 139.16520876 347.8997384 140.24609375 348.8515625 C149.18878853 356.65207426 158.47613101 363.92410877 168 371 C168.73798828 371.54833496 169.47597656 372.09666992 170.23632812 372.66162109 C236.88785093 421.9553733 317.10408776 455.95860013 400 464 C400.98355469 464.17660156 401.96710938 464.35320312 402.98046875 464.53515625 C407.8094571 465.12771194 410.08162089 464.69649682 414.0234375 461.70703125 C417.26413208 458.68670186 420.15079645 455.38635666 423 452 C424.24330078 450.54980469 424.24330078 450.54980469 425.51171875 449.0703125 C427.72553029 446.41674552 429.87116476 443.721984 432 441 C432.69609375 440.13632812 433.3921875 439.27265625 434.109375 438.3828125 C437.60626453 434.61382665 437.60626453 434.61382665 439 430 C438.13238037 429.91024902 437.26476074 429.82049805 436.37084961 429.72802734 C385.00381275 424.31174074 336.98827219 412.12889074 289.99755859 390.38574219 C287.30319382 389.14016355 284.60080456 387.91472299 281.89453125 386.6953125 C269.1669706 380.89401079 257.07479425 374.04380452 245 367 C244.12134277 366.49033691 243.24268555 365.98067383 242.33740234 365.45556641 C229.83415617 358.18116593 217.80985825 350.35018017 206 342 C205.22350098 341.45166504 204.44700195 340.90333008 203.64697266 340.33837891 C193.53659552 333.17379323 183.64887829 325.7746577 174 318 C173.07058594 317.25363281 172.14117187 316.50726562 171.18359375 315.73828125 C159.70141552 306.42885873 148.56146312 296.76299545 137.77294922 286.65966797 C135.82198214 284.83335646 133.86611161 283.01237378 131.91015625 281.19140625 C114.32353549 264.79403218 114.32353549 264.79403218 107.10546875 256.38671875 C104.89437405 253.88026446 102.62094262 251.44315697 100.33300781 249.00708008 C95.16238037 243.49869152 90.15993707 237.93429634 85.4375 232.03125 C83.54346938 229.67585294 81.62775318 227.34816632 79.6875 225.03125 C72.81735997 216.81253732 66.28274579 208.49202303 60.18115234 199.68847656 C58.98903549 197.98432606 57.77443909 196.29880838 56.55078125 194.6171875 C28.46808683 155.98070173 6.1435949 113.30299065 -9 68 C-9.33 68 -9.66 68 -10 68 Z " fill="#EFCD1A" transform="translate(63,306)"/>
<path d="M0 0 C2.34115539 0.24716824 4.67508 0.56757069 7 0.9375 C8.5368625 1.11101134 10.07470891 1.27596224 11.61328125 1.43359375 C15.75260492 1.86798307 19.87495715 2.38420084 24 2.9375 C23.30621949 7.5734729 21.58507719 11.69659381 19.78125 15.98828125 C19.28594032 17.18145966 19.28594032 17.18145966 18.78062439 18.39874268 C17.6917414 21.01779622 16.59604 23.63393439 15.5 26.25 C14.74202819 28.06817767 13.98430036 29.88645707 13.22680664 31.70483398 C5.25065277 50.82434224 -2.86095596 69.88687204 -11 88.9375 C-10.11199707 89.05025269 -10.11199707 89.05025269 -9.20605469 89.1652832 C2.39438566 90.64383644 13.98044975 92.15902102 25.52636719 94.02270508 C27.02573467 94.25782886 28.5280047 94.4754202 30.03295898 94.67163086 C31.71170721 94.89853378 33.37811038 95.21383062 35.0390625 95.546875 C40.17373251 94.49013552 42.95584575 90.32090488 46.3125 86.5 C47.04017578 85.69755859 47.76785156 84.89511719 48.51757812 84.06835938 C49.85674368 82.5894114 51.18923587 81.10437511 52.51293945 79.61157227 C53.3213574 78.70148823 54.13924669 77.79825331 55 76.9375 C62.05893948 76.5850713 69.02188603 76.84289389 76 77.9375 C75.34 79.5875 74.68 81.2375 74 82.9375 C76.82683151 83.71637327 79.49869876 84.13249572 82.42163086 84.33886719 C83.73756981 84.4349955 83.73756981 84.4349955 85.08009338 84.5330658 C86.032061 84.59949783 86.98402863 84.66592987 87.96484375 84.734375 C90.0421902 84.88664543 92.11949985 85.03941864 94.19677734 85.19262695 C95.29415222 85.27276031 96.3915271 85.35289368 97.52215576 85.43545532 C137.50337826 88.38597909 177.08552587 92.89658289 216.62414551 99.54296875 C218.86083183 99.91438992 221.09908545 100.27278827 223.33886719 100.625 C226.94067091 101.19714058 230.53288364 101.80783198 234.125 102.4375 C235.11983398 102.59025391 236.11466797 102.74300781 237.13964844 102.90039062 C239.62034192 103.3685142 241.72620468 103.84417368 244 104.9375 C245.70802476 107.59172178 246.28476804 108.99018178 247 111.9375 C247.53472059 113.67331135 248.06990889 115.40897866 248.60546875 117.14453125 C249.13761944 119.01165749 249.66488049 120.88018354 250.1875 122.75 C250.59645508 124.17989258 250.59645508 124.17989258 251.01367188 125.63867188 C253 132.66300517 253 132.66300517 253 134.9375 C254.00160156 135.13085938 255.00320313 135.32421875 256.03515625 135.5234375 C257.37763508 135.78630049 258.72008127 136.04933026 260.0625 136.3125 C260.71927734 136.43882812 261.37605469 136.56515625 262.05273438 136.6953125 C266.44784965 137.56134507 270.70786171 138.65376553 275 139.9375 C274.855625 138.74253906 274.71125 137.54757813 274.5625 136.31640625 C274.37472957 134.71096911 274.1872449 133.10549852 274 131.5 C273.85691406 130.3253418 273.85691406 130.3253418 273.7109375 129.12695312 C273.08488869 123.69374381 272.91240429 118.40675737 273 112.9375 C278.90950087 113.5789655 284.29150358 115.10783052 289.9375 116.9375 C290.89696533 117.24727783 291.85643066 117.55705566 292.8449707 117.8762207 C332.49857961 130.86071417 371.06263233 148.73871547 407 169.9375 C407.87720703 170.44909668 408.75441406 170.96069336 409.65820312 171.48779297 C415.49013915 174.89047511 421.26361447 178.37632107 427 181.9375 C428.15628906 182.64519531 428.15628906 182.64519531 429.3359375 183.3671875 C445.1219055 193.11892883 445.1219055 193.11892883 448 202.9375 C448.38285156 203.97003906 448.76570312 205.00257813 449.16015625 206.06640625 C457.6440678 232.72601983 452.00987515 262.78712406 439.84765625 287.25585938 C435.87543435 294.88600279 431.60215403 302.37888065 426 308.9375 C425.34 308.9375 424.68 308.9375 424 308.9375 C422.66015625 307.57421875 422.66015625 307.57421875 421.0625 305.625 C363.29453392 237.74763986 268.62629708 194.9882998 86.36830139 143.3248291 C80.20838996 142.00633897 74.09451138 140.5324948 68 138.9375 C68 140.5875 68 142.2375 68 143.9375 C61.16292914 144.07937598 54.20899977 144.11074755 48 140.9375 C42.95483132 135.58268709 40.02752742 128.66211049 37.23828125 121.93115234 C36.2042578 119.79521365 36.2042578 119.79521365 34.20916748 119.33146667 C31.92229312 118.92364233 29.73583 118.73816699 27.41503906 118.64038086 C26.51440735 118.60041489 25.61377563 118.56044891 24.68585205 118.51927185 C23.72217712 118.48068558 22.7585022 118.4420993 21.765625 118.40234375 C20.77246277 118.35936661 19.77930054 118.31638947 18.75604248 118.27210999 C15.58751223 118.13588456 12.41877598 118.00537167 9.25 117.875 C7.10024438 117.78357956 4.95050453 117.69178715 2.80078125 117.59960938 C-2.46597037 117.37459147 -7.73290248 117.15426184 -13 116.9375 C-12.68144043 118.03288086 -12.36288086 119.12826172 -12.03466797 120.25683594 C-7.31679287 136.57926836 -2.87303586 152.9752995 1.5703125 169.37402344 C2.6713451 173.437464 3.77483501 177.50023277 4.8789959 181.56282425 C5.73431954 184.71082753 6.58843739 187.85915695 7.442173 191.00759125 C7.84930152 192.5084699 8.25679801 194.0092488 8.66466904 195.50992584 C9.22802969 197.58343581 9.78977868 199.65737552 10.35107422 201.73144531 C10.67050995 202.90942688 10.98994568 204.08740845 11.31906128 205.30108643 C12 207.9375 12 207.9375 12 208.9375 C9.8121074 208.81957104 7.62470198 208.69261048 5.4375 208.5625 C4.21933594 208.49289062 3.00117188 208.42328125 1.74609375 208.3515625 C1.04218506 208.28098633 0.33827637 208.21041016 -0.38696289 208.13769531 C-3.16078025 207.88661966 -3.16078025 207.88661966 -6.59545898 207.97949219 C-10.80556289 207.82593217 -14.05407541 207.43746857 -18 205.9375 C-21.90324833 201.46763227 -23.7998693 196.41619457 -25.9375 190.9375 C-26.58911891 189.40032663 -27.24712201 187.86584561 -27.91113281 186.33398438 C-29.2876521 183.14521129 -30.63593927 179.94656559 -31.96630859 176.73828125 C-34.83310666 169.88986715 -38.04906604 163.21007343 -41.25588989 156.51611328 C-42.81466169 153.25683271 -44.35418578 149.98860586 -45.890625 146.71875 C-46.19182755 146.07824707 -46.49303009 145.43774414 -46.80335999 144.77783203 C-51.92658351 133.85797429 -56.95444937 122.89339095 -62 111.9375 C-62.72725784 111.90071136 -63.45451569 111.86392273 -64.20381165 111.82601929 C-71.10388922 111.4721519 -78.00210099 111.09215376 -84.8991518 110.68376732 C-88.443984 110.47476979 -91.98878004 110.27542862 -95.53540039 110.09912109 C-99.62590652 109.89533168 -103.71279965 109.64782426 -107.80078125 109.3984375 C-109.68426018 109.31364639 -109.68426018 109.31364639 -111.60578918 109.22714233 C-121.19652933 108.59093786 -128.7919333 105.7454234 -136.1875 99.5 C-138 96.9375 -138 96.9375 -138.625 93.4375 C-137.81040822 88.87578603 -136.72096243 87.6910122 -133 84.9375 C-125.87364251 81.20142353 -119.98977556 80.47862693 -112.0625 81.0625 C-111.01271973 81.10640869 -109.96293945 81.15031738 -108.88134766 81.19555664 C-102.99824414 81.47218498 -97.22597453 82.01351189 -91.40727234 82.89578247 C-75.31058823 85.96870145 -75.31058823 85.96870145 -60.15722656 82.12646484 C-55.26266186 77.1081554 -52.27883165 71.13998162 -49.38085938 64.81640625 C-47.42413908 60.73690736 -44.90906547 57.20616349 -42.25 53.5625 C-41.36591521 52.28653136 -40.48565245 51.00790543 -39.609375 49.7265625 C-39.18076172 49.10426758 -38.75214844 48.48197266 -38.31054688 47.84082031 C-36.03844937 44.54103042 -33.76943777 41.2391194 -31.5 37.9375 C-30.58594442 36.60806816 -29.67188193 35.27864107 -28.7578125 33.94921875 C-25.26352021 28.86684719 -25.26352021 28.86684719 -21.77392578 23.78125 C-20.84840959 22.43739403 -19.91716625 21.09746271 -18.97998047 19.76171875 C-16.76178538 16.58812721 -14.66670308 13.41763832 -12.765625 10.04296875 C-7.02899041 0.14825414 -7.02899041 0.14825414 0 0 Z " fill="#F59C1D" transform="translate(211,83.0625)"/>
<path d="M0 0 C2.27505436 3.77897722 2.86844238 7.85295405 3.62890625 12.12890625 C3.93916627 13.80252249 4.25006698 15.47602006 4.56152344 17.14941406 C4.72390503 18.03085083 4.88628662 18.9122876 5.05358887 19.82043457 C14.71337146 71.86833489 30.26240057 121.58223743 54 169 C54.42104004 169.84997559 54.84208008 170.69995117 55.27587891 171.57568359 C70.51742374 202.19995551 91.03216187 230.26568136 114.40234375 255.19140625 C116.39324622 257.34397599 118.3160082 259.52025903 120.2265625 261.7421875 C124.42287794 266.55769663 128.91181907 271.05838705 133.4375 275.5625 C134.24509766 276.37396484 135.05269531 277.18542969 135.88476562 278.02148438 C140.76081404 282.88967453 145.76364108 287.52388076 151 292 C152.08305005 292.94935982 153.16512986 293.899828 154.24609375 294.8515625 C163.18878853 302.65207426 172.47613101 309.92410877 182 317 C182.73798828 317.54833496 183.47597656 318.09666992 184.23632812 318.66162109 C250.83212031 367.91415636 331.14015365 402.0708281 414 410 C414.99515625 410.165 415.9903125 410.33 417.015625 410.5 C421.63504024 411.01613578 423.99925928 410.73973861 427.80078125 407.9296875 C430.73293272 405.08270226 433.38712302 402.13564965 436 399 C437.19302734 397.61748047 437.19302734 397.61748047 438.41015625 396.20703125 C442.83295345 390.99540594 442.83295345 390.99540594 446.48901367 385.24438477 C449.20899923 380.63838377 451.11381073 377.52148613 456.42797852 376.05224609 C459.89439635 375.80864711 463.23832813 375.73414394 466.70523071 375.85800171 C468.97837595 375.93895572 471.24381134 375.95471346 473.51831055 375.95239258 C476.57937276 375.95038915 479.63929598 375.96757713 482.70019531 375.99804688 C532.46697429 376.26808421 581.39373143 357.50070718 621 328 C621.66 328.33 622.32 328.66 623 329 C610.22893887 349.79714303 610.22893887 349.79714303 604.58203125 355.3984375 C602.18920053 357.8093683 600.10177569 360.27333511 598 362.9375 C590.14094563 372.63339512 581.76056786 382.17770094 572 390 C571.26426758 390.60424805 571.26426758 390.60424805 570.51367188 391.22070312 C562.95753157 397.42084187 555.2797728 402.94613104 546.83691406 407.90625 C544.77902006 409.13157764 542.7445175 410.39099121 540.7109375 411.65625 C508.27443964 431.81438756 473.55437356 444.88423891 436 452 C435.13375 452.16580566 434.2675 452.33161133 433.375 452.50244141 C338.87368824 470.1267846 241.32664567 440.18608847 163.09765625 387.13671875 C162.07542969 386.43160156 161.05320313 385.72648437 160 385 C159.38366699 384.5767041 158.76733398 384.1534082 158.13232422 383.71728516 C115.16259283 354.12147842 78.3574031 319.45667796 52 274 C51.58830566 273.30148926 51.17661133 272.60297852 50.75244141 271.88330078 C17.55584059 215.38991714 2.57401508 149.84632282 -2 85 C-2.05784668 84.24799316 -2.11569336 83.49598633 -2.17529297 82.72119141 C-3.89370541 60.05548422 -3.5401615 37.10544916 -2.0625 14.4375 C-2.01902435 13.75884888 -1.97554871 13.08019775 -1.93075562 12.38098145 C-1.19601817 1.19601817 -1.19601817 1.19601817 0 0 Z " fill="#80CBC9" transform="translate(49,359)"/>
<path d="M0 0 C1.69426863 0.38004771 3.38316334 0.78470313 5.06640625 1.2109375 C5.91267578 1.40300781 6.75894531 1.59507813 7.63085938 1.79296875 C11.77812984 2.76077345 15.72857442 3.83999841 19.62890625 5.5859375 C18.32291885 9.09706577 16.7818667 12.14003247 14.7578125 15.2890625 C14.18933594 16.17787109 13.62085938 17.06667969 13.03515625 17.98242188 C12.42671875 18.92408203 11.81828125 19.86574219 11.19140625 20.8359375 C10.56105469 21.81884766 9.93070313 22.80175781 9.28125 23.81445312 C7.40213372 26.74153809 5.51693062 29.66459213 3.62890625 32.5859375 C2.88229736 33.74125977 2.88229736 33.74125977 2.12060547 34.91992188 C0.36202966 37.63891688 -1.39787632 40.35703578 -3.16113281 43.07299805 C-9.29757064 52.53466058 -15.32778784 62.06464195 -21.37109375 71.5859375 C-17.26542358 72.97944687 -13.15770896 74.36671057 -9.0480957 75.74853516 C-7.65398087 76.21823 -6.2604115 76.68954742 -4.86743164 77.16259766 C-1.55132775 78.28819302 1.76826595 79.39657053 5.10473633 80.46044922 C7.19101201 81.12672777 9.2702985 81.81694767 11.33081055 82.55908203 C14.56275546 83.574073 16.52955974 84.11907473 19.6496582 82.60595703 C21.75338559 81.08607223 23.65356973 79.46453086 25.56640625 77.7109375 C29.93190585 73.73749589 32.84430724 71.20141555 38.9453125 71.265625 C39.76588135 71.33249512 40.5864502 71.39936523 41.43188477 71.46826172 C43.80732062 71.73008566 43.80732062 71.73008566 46.62890625 70.5859375 C49.00366211 71.0480957 49.00366211 71.0480957 51.84375 71.88671875 C52.90795166 72.19907471 53.97215332 72.51143066 55.06860352 72.83325195 C56.22287842 73.18476318 57.37715332 73.53627441 58.56640625 73.8984375 C59.76773193 74.26090576 60.96905762 74.62337402 62.20678711 74.99682617 C84.54776109 81.84294936 106.27622875 90.10345004 127.62890625 99.5859375 C128.48774414 99.96572754 129.34658203 100.34551758 130.23144531 100.73681641 C155.05614405 111.81589538 179.05356177 125.71968005 199.62890625 143.5859375 C200.40234375 144.22660156 201.17578125 144.86726562 201.97265625 145.52734375 C221.11128751 161.74930004 236.27308568 186.49569025 239.62890625 211.5859375 C240.46388822 227.86808589 238.88793381 242.77038125 231.62890625 257.5859375 C231.13648438 258.62105469 230.6440625 259.65617187 230.13671875 260.72265625 C218.9299735 282.94847398 199.70902683 300.40859633 179.62890625 314.5859375 C179.00306641 315.0298584 178.37722656 315.4737793 177.73242188 315.93115234 C168.12333974 322.68354932 158.01614885 328.53453906 147.81152344 334.33154297 C145.80015696 335.48751623 143.80869145 336.66968612 141.82421875 337.87109375 C140.74914062 338.51949219 139.6740625 339.16789062 138.56640625 339.8359375 C137.64730469 340.39796875 136.72820312 340.96 135.78125 341.5390625 C135.07097656 341.88453125 134.36070312 342.23 133.62890625 342.5859375 C132.96890625 342.2559375 132.30890625 341.9259375 131.62890625 341.5859375 C132.25796875 340.70035156 132.88703125 339.81476563 133.53515625 338.90234375 C140.03434213 329.56821656 145.17167223 320.04235287 149.62890625 309.5859375 C150.26119141 308.12220703 150.26119141 308.12220703 150.90625 306.62890625 C159.42274628 285.19304579 160.88205375 255.975116 151.78320312 234.59912109 C144.10299576 217.36757305 133.49510298 202.320653 120.62890625 188.5859375 C119.75621094 187.6475 118.88351562 186.7090625 117.984375 185.7421875 C94.79202693 161.36899102 63.69753465 144.81564129 33.82421875 130.1796875 C32.09212881 129.31574364 30.3603271 128.45122151 28.62890625 127.5859375 C27.92000244 127.24876709 27.21109863 126.91159668 26.48071289 126.56420898 C22.07129118 124.32354394 20.46651331 122.27223573 18.81640625 117.6484375 C18.43871094 116.62878906 18.06101562 115.60914063 17.671875 114.55859375 C17.15560547 113.08712891 17.15560547 113.08712891 16.62890625 111.5859375 C16.06623047 110.25369141 16.06623047 110.25369141 15.4921875 108.89453125 C14.62890625 106.5859375 14.62890625 106.5859375 14.62890625 103.5859375 C14.08105469 103.54855469 13.53320312 103.51117188 12.96875 103.47265625 C5.05337431 102.81625924 -2.60949351 101.22975294 -10.37109375 99.5859375 C-11.70564472 99.30948785 -13.04027971 99.03344351 -14.375 98.7578125 C-24.09463872 96.72416501 -24.09463872 96.72416501 -26.37109375 95.5859375 C-26.2009375 96.86855469 -26.03078125 98.15117187 -25.85546875 99.47265625 C-23.95115208 114.33486701 -22.51778316 129.22611797 -21.18359375 144.1484375 C-21.09323853 145.14628265 -21.0028833 146.14412781 -20.90979004 147.17221069 C-20.64919667 150.06106675 -20.39395507 152.95034259 -20.140625 155.83984375 C-20.02365013 157.13557816 -20.02365013 157.13557816 -19.90431213 158.45748901 C-19.4690927 163.5221488 -19.29899064 168.50248504 -19.37109375 173.5859375 C-24.32828276 172.91812965 -29.22908476 172.14685511 -34.12109375 171.0859375 C-35.4153125 170.828125 -36.70953125 170.5703125 -38.04296875 170.3046875 C-41.67990487 168.42645758 -41.92275928 168.13415797 -43.15234375 164.5 C-43.57874266 162.86710831 -43.98480874 161.22878113 -44.37109375 159.5859375 C-44.81497333 158.1013709 -45.26802933 156.61951541 -45.73046875 155.140625 C-46.19536701 153.58113294 -46.65884743 152.02121767 -47.12109375 150.4609375 C-48.73679561 145.03069473 -50.35949545 139.60349667 -52.03515625 134.19140625 C-55.45859416 123.11806387 -58.70772039 112.00348515 -61.80859375 100.8359375 C-62.1629248 99.56758057 -62.51725586 98.29922363 -62.88232422 96.99243164 C-63.2073291 95.81156982 -63.53233398 94.63070801 -63.8671875 93.4140625 C-64.15779053 92.3612207 -64.44839355 91.30837891 -64.74780273 90.22363281 C-65.37109375 87.5859375 -65.37109375 87.5859375 -65.37109375 84.5859375 C-66.40621094 84.37839844 -67.44132812 84.17085938 -68.5078125 83.95703125 C-78.28441624 81.96548028 -88.02687047 79.81431541 -97.74111938 77.5383606 C-99.65651371 77.09224473 -101.5747101 76.65821529 -103.49291992 76.22436523 C-113.67189541 73.81172884 -120.37120059 70.58577724 -126.37109375 61.5859375 C-126.80859375 59.1484375 -126.80859375 59.1484375 -126.37109375 56.5859375 C-122.14922531 52.10819824 -117.2544806 50.80142752 -111.23828125 50.35180664 C-106.41064127 50.64408611 -102.41998687 52.02611844 -97.87109375 53.58203125 C-78.60832184 60.73225262 -78.60832184 60.73225262 -59.17333984 58.93115234 C-52.05465329 54.39067903 -47.02582814 47.42802727 -42.36083984 40.52832031 C-36.71188326 32.17479581 -29.20088336 25.33469037 -22.04296875 18.296875 C-18.4259655 14.71677994 -14.89665238 11.11683123 -11.55859375 7.2734375 C-10.99213135 6.62971191 -10.42566895 5.98598633 -9.84204102 5.32275391 C-8.24703585 3.48937975 -8.24703585 3.48937975 -6.5234375 0.984375 C-3.87638192 -0.73549052 -3.05720491 -0.47790499 0 0 Z " fill="#203957" transform="translate(505.37109375,49.4140625)"/>
<path d="M0 0 C0.69053467 0.18583145 1.38106934 0.3716629 2.0925293 0.56312561 C3.19316711 0.81830711 3.19316711 0.81830711 4.31604004 1.0786438 C6.28013973 1.54226232 8.21436653 2.07254649 10.1550293 2.62562561 C10.82985352 2.81189514 11.50467773 2.99816467 12.19995117 3.19007874 C13.83251617 3.64163927 15.46278928 4.1014733 17.0925293 4.56312561 C17.0925293 8.86128451 16.7181422 9.59929244 14.3737793 12.95765686 C13.77919922 13.81923401 13.18461914 14.68081116 12.57202148 15.5684967 C11.59217285 16.95802551 11.59217285 16.95802551 10.5925293 18.37562561 C9.92125 19.34322815 9.2499707 20.31083069 8.55834961 21.30775452 C6.41140805 24.39877307 4.25206908 27.48089974 2.0925293 30.56312561 C0.70087375 32.56371122 -0.68976758 34.56500275 -2.0793457 36.56703186 C-4.76280113 40.4318466 -7.45041835 44.29370236 -10.1418457 48.15296936 C-15.09848381 55.26582083 -20.00785035 62.41092556 -24.9074707 69.56312561 C-21.1589078 70.98361451 -17.40835698 72.39878433 -13.6574707 73.81312561 C-12.61333008 74.2088678 -11.56918945 74.60460999 -10.4934082 75.01234436 C-7.30416842 76.21323094 -4.10848842 77.39400769 -0.9074707 78.56312561 C0.19274414 78.9672467 1.29295898 79.3713678 2.42651367 79.78773499 C3.48676758 80.16220764 4.54702148 80.5366803 5.6394043 80.92250061 C6.59169922 81.26249084 7.54399414 81.60248108 8.52514648 81.95277405 C11.27493196 82.60648874 12.5008267 82.61535283 15.0925293 81.56312561 C16.89908514 80.420103 16.89908514 80.420103 18.6315918 78.98890686 C29.36302416 70.76397137 29.36302416 70.76397137 34.11987305 70.21156311 C36.63661326 70.74670972 38.7530322 71.50283977 41.0925293 72.56312561 C42.46225558 72.95695288 43.83698781 73.33407024 45.2175293 73.68812561 C46.1662793 73.97687561 47.1150293 74.26562561 48.0925293 74.56312561 C48.0925293 75.22312561 48.0925293 75.88312561 48.0925293 76.56312561 C48.69589111 76.71442932 49.29925293 76.86573303 49.92089844 77.0216217 C58.61722619 79.29064785 67.06216746 82.19977103 75.5300293 85.18812561 C76.31765656 85.46535461 77.10528381 85.74258362 77.91677856 86.0282135 C108.04113294 96.65782372 137.87058006 108.14645647 167.03295898 121.19642639 C169.80951165 122.43670263 172.59332908 123.65806153 175.3815918 124.87171936 C198.57498332 135.02935854 220.78253126 146.65698331 242.35229492 159.88392639 C244.10383446 160.95725933 245.86237004 162.01931107 247.62963867 163.06654358 C249.4838127 164.17847923 251.29461662 165.36234577 253.0925293 166.56312561 C253.0925293 167.22312561 253.0925293 167.88312561 253.0925293 168.56312561 C237.49869637 172.19381807 221.98859588 175.58450129 206.0925293 177.56312561 C205.31586914 177.66077209 204.53920898 177.75841858 203.73901367 177.85902405 C201.42038956 178.14523825 199.10085385 178.42036709 196.7800293 178.68812561 C196.12381592 178.76385803 195.46760254 178.83959045 194.79150391 178.9176178 C188.31813715 179.6162451 181.82459992 180.04554901 175.32589722 180.43055725 C173.7859421 180.52196598 172.24617385 180.61655936 170.70657349 180.71376038 C128.1260849 183.34323382 128.1260849 183.34323382 110.55493164 168.52552795 C106.25001461 165.09474042 101.49434403 162.46420596 96.7175293 159.75062561 C95.74251465 159.1856134 94.7675 158.6206012 93.76293945 158.03846741 C74.03580585 146.67443808 53.83855719 135.94696039 33.0925293 126.56312561 C32.4325293 127.22312561 31.7725293 127.88312561 31.0925293 128.56312561 C18.49155721 125.21072796 18.49155721 125.21072796 15.37768555 121.54359436 C14.36994817 119.23267853 13.69807133 117.00904049 13.0925293 114.56312561 C12.51508743 112.93602276 11.93192196 111.3109377 11.3425293 109.68812561 C10.45111787 107.04234063 10.0925293 105.40276256 10.0925293 102.56312561 C9.47466553 102.46080627 8.85680176 102.35848694 8.22021484 102.25306702 C0.02620307 100.83549028 -8.02241243 98.92145672 -16.0949707 96.93812561 C-17.44190461 96.60970804 -18.78890944 96.28158122 -20.13598633 95.95375061 C-23.39385354 95.15971846 -26.65098121 94.36278571 -29.9074707 93.56312561 C-29.83230225 94.47822151 -29.83230225 94.47822151 -29.75561523 95.4118042 C-29.2302575 101.82022299 -28.71231816 108.22921205 -28.19848633 114.63856506 C-28.00633895 117.02348152 -27.81236489 119.4082516 -27.61645508 121.79286194 C-27.33353053 125.24064396 -27.0574031 128.68891689 -26.7824707 132.13734436 C-26.69497559 133.18581039 -26.60748047 134.23427643 -26.51733398 135.31451416 C-25.93414724 142.74299471 -25.81225817 150.11335902 -25.9074707 157.56312561 C-29.73581783 156.84869893 -33.0124959 155.79553798 -36.5949707 154.25062561 C-40.85346596 152.37057024 -40.85346596 152.37057024 -45.28353882 150.98756409 C-49.4036374 149.81940718 -52.15112732 148.87569304 -54.34962463 145.06039429 C-55.46651333 141.73853092 -56.29714784 138.4408908 -57.05981445 135.02015686 C-57.52732872 133.1629023 -57.52732872 133.1629023 -58.00428772 131.26812744 C-58.82426841 127.9811835 -59.60718072 124.68978497 -60.37268066 121.39002991 C-61.15345309 118.0598912 -61.9774825 114.74056503 -62.80004883 111.42054749 C-63.72755063 107.67409448 -64.64779293 103.92650893 -65.53709412 100.17074585 C-66.06302429 97.95634101 -66.60454154 95.74555723 -67.16447449 93.539505 C-67.63395617 91.65880149 -68.06031455 89.76633326 -68.42549133 87.86262512 C-68.99387964 85.42714615 -69.52256972 83.64703196 -70.9074707 81.56312561 C-74.03708693 79.65122762 -77.27347994 78.93891829 -80.83325195 78.16468811 C-81.81359909 77.91818512 -82.79394623 77.67168213 -83.80400085 77.41770935 C-86.934996 76.63784316 -90.0755159 75.91160293 -93.2199707 75.18812561 C-96.35019262 74.43248007 -99.47752518 73.66605151 -102.60380554 72.89427185 C-104.54757787 72.41829595 -106.4941517 71.9535778 -108.44367981 71.50175476 C-116.89316937 69.50060888 -123.56091263 66.65787706 -128.9074707 59.56312561 C-130.1574707 55.87562561 -130.1574707 55.87562561 -129.9074707 52.56312561 C-126.52954694 48.53141015 -122.02338325 47.13860958 -116.9074707 46.56312561 C-110.70852186 46.77318656 -104.83299746 48.20929458 -98.8918457 49.88343811 C-97.21221639 50.34068316 -95.53252713 50.79770805 -93.8527832 51.25453186 C-91.24265336 51.97288456 -88.63357682 52.69477955 -86.02563477 53.42103577 C-83.48350883 54.12623082 -80.93801727 54.81801756 -78.3918457 55.50843811 C-77.61468201 55.72920013 -76.83751831 55.94996216 -76.0368042 56.17741394 C-72.01942202 57.25984237 -68.86757093 58.07039676 -64.9074707 56.56312561 C-62.93221541 55.1177082 -62.93221541 55.1177082 -61.20043945 53.21156311 C-60.53077148 52.5244928 -59.86110352 51.83742249 -59.17114258 51.12953186 C-58.48600586 50.4063678 -57.80086914 49.68320374 -57.0949707 48.93812561 C-55.73689355 47.52676505 -54.37622178 46.11789646 -53.01293945 44.71156311 C-52.41634521 44.08427307 -51.81975098 43.45698303 -51.20507812 42.8106842 C-49.23871034 40.88714985 -47.23054063 39.10369666 -45.14477539 37.31361389 C-40.83910441 33.57560639 -36.9264937 29.54072819 -33.00512695 25.40687561 C-31.52408995 23.87428611 -30.04162556 22.34307491 -28.55786133 20.81312561 C-26.24959716 18.43065579 -23.95014303 16.04211549 -21.67333984 13.62953186 C-19.45282433 11.28178321 -17.20164714 8.96751931 -14.94262695 6.65687561 C-14.27046646 5.92996521 -13.59830597 5.20305481 -12.90577698 4.45411682 C-8.61764586 0.13987821 -6.06921083 -1.23617657 0 0 Z " fill="#1E8D9A" transform="translate(293.907470703125,256.43687438964844)"/>
<path d="M0 0 C3.72081704 3.29342589 5.97212976 7.08618377 8.25 11.4375 C8.63768555 12.17758301 9.02537109 12.91766602 9.42480469 13.68017578 C22.57224322 39.47761112 29.22699088 67.0544432 28 96 C27.95069336 97.17187866 27.95069336 97.17187866 27.90039062 98.36743164 C27.50718777 103.72708033 26.19642043 107.15688161 23.125 111.6875 C22.53150757 112.56752686 22.53150757 112.56752686 21.92602539 113.46533203 C15.13131162 123.37852009 7.7789923 132.76716621 -1 141 C-1.825 141.825 -2.65 142.65 -3.5 143.5 C-4.325 144.325 -5.15 145.15 -6 146 C-6.52464844 146.55945313 -7.04929687 147.11890625 -7.58984375 147.6953125 C-13.31094048 153.67041141 -19.6828205 158.6242424 -26.23583984 163.63720703 C-27.84683606 164.88168266 -29.43453686 166.15616619 -31.01953125 167.43359375 C-43.46000392 177.36314533 -57.16924234 185.5686848 -70.83251953 193.69287109 C-72.80947344 194.88510034 -74.75214072 196.11676381 -76.6875 197.375 C-112.34522317 219.55578843 -169.5713673 245.02076701 -213 244 C-213 243.34 -213 242.68 -213 242 C-211.96746094 241.57332031 -210.93492187 241.14664063 -209.87109375 240.70703125 C-179.688703 227.93256674 -151.1482767 209.78035636 -127.42578125 187.1171875 C-125 185 -125 185 -122 184 C-121.30777777 182.67975358 -120.64412539 181.34436777 -120 180 C-118.87582366 178.81245097 -117.70338262 177.66971065 -116.5 176.5625 C-106.68021562 166.99312907 -98.78862567 155.63088678 -93.56396484 142.98071289 C-89.20762049 132.5174357 -85.28130545 125.74115869 -76 119 C-74.59102447 117.80701715 -73.19399966 116.5996954 -71.8125 115.375 C-71.1834375 114.8284375 -70.554375 114.281875 -69.90625 113.71875 C-66.46691862 110.61771351 -63.24176216 107.30491337 -60 104 C-55 99 -55 99 -53.52734375 97.6328125 C-42.09846448 86.7713244 -33.46141763 73.19249837 -25 60 C-24.35289062 59.00871094 -23.70578125 58.01742187 -23.0390625 56.99609375 C-12.41221008 39.8584233 -4.89519669 19.50119005 0 0 Z " fill="#F39C1E" transform="translate(758,382)"/>
<path d="M0 0 C3.1044208 1.57956213 4.22687169 3.86649235 5.7734375 6.90234375 C5.54337003 12.0501033 3.45719687 15.44064134 0.4609375 19.46484375 C-0.19588013 20.36577759 -0.19588013 20.36577759 -0.8659668 21.28491211 C-7.23615949 29.83176422 -14.69606994 37.38415592 -22.2265625 44.90234375 C-22.87496094 45.58554687 -23.52335938 46.26875 -24.19140625 46.97265625 C-30.64787249 53.6976092 -37.78759609 59.32261807 -45.2265625 64.90234375 C-45.79004395 65.32660645 -46.35352539 65.75086914 -46.93408203 66.18798828 C-94.70674275 101.90234375 -94.70674275 101.90234375 -111.2265625 101.90234375 C-111.2359082 101.3511084 -111.24525391 100.79987305 -111.25488281 100.23193359 C-111.64071858 81.88203847 -114.20308937 64.55620336 -119.2265625 46.90234375 C-118.48946045 46.73742432 -117.7523584 46.57250488 -116.99291992 46.40258789 C-77.75756442 37.52637284 -38.14995739 24.73333652 -4.94140625 1.38671875 C-2.2265625 -0.09765625 -2.2265625 -0.09765625 0 0 Z " fill="#1F8D9A" transform="translate(656.2265625,522.09765625)"/>
<path d="M0 0 C0.99 0.495 0.99 0.495 2 1 C-7.27641012 9.89963716 -16.67730938 18.33226579 -27 26 C-27.62003906 26.46583496 -28.24007812 26.93166992 -28.87890625 27.41162109 C-52.83490598 45.29997746 -79.25948399 59.06050811 -107.69628906 68.25488281 C-109.17249209 68.73234907 -110.64610304 69.21795169 -112.11621094 69.71386719 C-132.62597093 76.62272916 -154.56177998 79.21256524 -176.125 79.0625 C-177.98898437 79.05573242 -177.98898437 79.05573242 -179.890625 79.04882812 C-182.92713502 79.03714924 -185.96354088 79.0207714 -189 79 C-187.4025442 75.61064235 -185.6744187 73.51995415 -182.9375 70.9375 C-177.23331648 65.35215364 -171.32705648 59.29490799 -167.50219727 52.2355957 C-164.78410003 47.63176037 -162.8839564 44.52067461 -157.57250977 43.05273438 C-154.10581491 42.80871367 -150.76195469 42.73413384 -147.29476929 42.85800171 C-145.02162405 42.93895572 -142.75618866 42.95471346 -140.48168945 42.95239258 C-137.42062724 42.95038915 -134.36070402 42.96757713 -131.29980469 42.99804688 C-85.23383704 43.2480034 -37.18116021 27.18570545 0 0 Z " fill="#208E9A" transform="translate(663,692)"/>
<path d="M0 0 C0.66 0.33 1.32 0.66 2 1 C0.44594515 3.56796248 -1.11775611 6.12915145 -2.6875 8.6875 C-3.12255859 9.40873047 -3.55761719 10.12996094 -4.00585938 10.87304688 C-6.63675172 15.14093891 -9.29537635 18.61577623 -13 22 C-11.32887344 17.14895833 -8.67263602 13.05193955 -5.9375 8.75 C-5.47794922 8.0178125 -5.01839844 7.285625 -4.54492188 6.53125 C-1.15472274 1.15472274 -1.15472274 1.15472274 0 0 Z " fill="#249098" transform="translate(670,687)"/>
<path d="M0 0 C0 0.33 0 0.66 0 1 C-3.63 1.33 -7.26 1.66 -11 2 C-11 1.34 -11 0.68 -11 0 C-6.94952424 -1.35015859 -4.2079832 -0.62084998 0 0 Z " fill="#A7A049" transform="translate(556,624)"/>
</svg>
